<svg width="481.210009765625px" height="122.021240234375px" xmlns="http://www.w3.org/2000/svg" viewBox="9.394995117187506 13.9893798828125 481.210009765625 122.021240234375" style="background: rgba(0, 0, 0, 0);" preserveAspectRatio="xMidYMid"><defs><filter id="editing-extrude-glow"><feFlood flood-color="#333333" result="flood-1"></feFlood><feMorphology operator="erode" radius="1" in="SourceAlpha" result="erode"></feMorphology><feComposite operator="in" in="flood-1" in2="erode" result="comp1"></feComposite><feConvolveMatrix order="3,3" divisor="1" in="comp1" result="convolve" kernelMatrix="0 0 0 1 1 1 0 0 0"></feConvolveMatrix><feOffset dx="-3" dy="0" in="convolve" result="extrude"></feOffset><feComposite operator="in" in="flood-1" in2="extrude" result="comp-extrude"></feComposite><feFlood flood-color="#000000" result="flood-2"></feFlood><feComposite operator="in" in="flood-2" in2="SourceAlpha" result="comp2"></feComposite><feMorphology operator="dilate" radius="1" in="comp2" result="dilate"></feMorphology><feOffset dx="-4.5" dy="0" in="dilate" result="offset"></feOffset><feGaussianBlur in="offset" stdDeviation="5.8" result="blur"></feGaussianBlur><feComponentTransfer in="blur" result="shadow"><feFuncA type="linear" slope="0.8" intercept="-0.2"></feFuncA></feComponentTransfer><feMerge><feMergeNode in="shadow"></feMergeNode><feMergeNode in="comp-extrude"></feMergeNode><feMergeNode in="SourceGraphic"></feMergeNode></feMerge></filter></defs><g filter="url(#editing-extrude-glow)"><g transform="translate(80.40000307559967, 98.9921875)"><path d="M16.38-3.52L16.38-3.52L16.38-3.52Q14.40 1.28 8.06 1.28L8.06 1.28L8.06 1.28Q4.86 1.28 2.82-0.96L2.82-0.96L2.82-0.96Q1.15-2.82 1.15-4.93L1.15-4.93L1.15-4.93Q1.15-9.73 3.39-20.22L3.39-20.22L8.06-44.80L21.06-46.08L14.85-13.70L14.85-13.70Q13.76-8.96 13.76-7.30L13.76-7.30L13.76-7.30Q13.76-3.65 16.38-3.52ZM35.78 1.28L35.78 1.28L35.78 1.28Q21.70 1.28 21.70-11.97L21.70-11.97L21.70-11.97Q21.70-21.38 26.88-27.46L26.88-27.46L26.88-27.46Q32.38-33.92 41.92-33.92L41.92-33.92L41.92-33.92Q48.83-33.92 52.35-30.72L52.35-30.72L52.35-30.72Q55.87-27.52 55.87-20.80L55.87-20.80L55.87-20.80Q55.87-10.56 50.37-4.61L50.37-4.61L50.37-4.61Q44.99 1.28 35.78 1.28ZM37.44-26.56L37.44-26.56L37.44-26.56Q36.67-24.83 36.06-22.24L36.06-22.24L36.06-22.24Q35.46-19.65 34.69-15.55L34.69-15.55L34.69-15.55Q33.92-11.46 33.92-6.40L33.92-6.40L33.92-6.40Q33.92-4.74 34.46-3.65L34.46-3.65L34.46-3.65Q35.01-2.56 36.48-2.56L36.48-2.56L36.48-2.56Q37.95-2.56 38.88-3.26L38.88-3.26L38.88-3.26Q39.81-3.97 40.51-5.63L40.51-5.63L40.51-5.63Q41.79-8.58 42.82-14.05L42.82-14.05L42.82-14.05Q43.84-19.52 43.94-21.89L43.94-21.89L43.94-21.89Q44.03-24.26 44.03-26.02L44.03-26.02L44.03-26.02Q44.03-27.78 43.52-28.93L43.52-28.93L43.52-28.93Q43.01-30.08 41.57-30.08L41.57-30.08L41.57-30.08Q40.13-30.08 39.17-29.18L39.17-29.18L39.17-29.18Q38.21-28.29 37.44-26.56ZM73.60 1.28L73.60 1.28L73.60 1.28Q59.52 1.28 59.52-11.97L59.52-11.97L59.52-11.97Q59.52-21.38 64.70-27.46L64.70-27.46L64.70-27.46Q70.21-33.92 79.74-33.92L79.74-33.92L79.74-33.92Q86.66-33.92 90.18-30.72L90.18-30.72L90.18-30.72Q93.70-27.52 93.70-20.80L93.70-20.80L93.70-20.80Q93.70-10.56 88.19-4.61L88.19-4.61L88.19-4.61Q82.82 1.28 73.60 1.28ZM75.26-26.56L75.26-26.56L75.26-26.56Q74.50-24.83 73.89-22.24L73.89-22.24L73.89-22.24Q73.28-19.65 72.51-15.55L72.51-15.55L72.51-15.55Q71.74-11.46 71.74-6.40L71.74-6.40L71.74-6.40Q71.74-4.74 72.29-3.65L72.29-3.65L72.29-3.65Q72.83-2.56 74.30-2.56L74.30-2.56L74.30-2.56Q75.78-2.56 76.70-3.26L76.70-3.26L76.70-3.26Q77.63-3.97 78.34-5.63L78.34-5.63L78.34-5.63Q79.62-8.58 80.64-14.05L80.64-14.05L80.64-14.05Q81.66-19.52 81.76-21.89L81.76-21.89L81.76-21.89Q81.86-24.26 81.86-26.02L81.86-26.02L81.86-26.02Q81.86-27.78 81.34-28.93L81.34-28.93L81.34-28.93Q80.83-30.08 79.39-30.08L79.39-30.08L79.39-30.08Q77.95-30.08 76.99-29.18L76.99-29.18L76.99-29.18Q76.03-28.29 75.26-26.56ZM113.98-30.34L113.98-30.34L113.98-30.34Q117.44-33.92 124.74-33.92L124.74-33.92L124.74-33.92Q128.77-33.92 130.98-31.78L130.98-31.78L130.98-31.78Q133.18-29.63 133.18-25.70L133.18-25.70L133.18-25.70Q133.18-21.76 130.98-18.98L130.98-18.98L130.98-18.98Q128.77-16.19 124.67-15.04L124.67-15.04L124.67-15.04Q124.99-13.76 125.44-12.42L125.44-12.42L126.34-9.86L126.34-9.86Q127.55-6.59 128.51-5.44L128.51-5.44L128.51-5.44Q129.47-4.29 130.75-3.90L130.75-3.90L130.75-3.90Q130.05-1.28 127.49 0.13L127.49 0.13L127.49 0.13Q125.44 1.28 122.62 1.28L122.62 1.28L122.62 1.28Q114.37 1.28 113.28-11.46L113.28-11.46L113.28-11.46Q113.09-13.25 113.09-15.04L113.09-15.04L113.09-15.04Q116.29-15.94 118.53-18.94L118.53-18.94L118.53-18.94Q120.77-21.95 120.77-25.47L120.77-25.47L120.77-25.47Q120.77-28.99 118.27-28.99L118.27-28.99L118.27-28.99Q116.48-28.99 115.07-27.01L115.07-27.01L115.07-27.01Q113.66-25.02 113.02-21.63L113.02-21.63L108.80 0L95.87 1.28L104.83-44.80L117.70-46.08L116.22-38.46L116.22-38.46Q115.26-33.09 113.98-30.34ZM138.50-10.37L138.50-10.37L138.50-10.37Q136.45-11.84 136.45-14.66L136.45-14.66L136.45-14.66Q136.45-16.19 137.22-17.44L137.22-17.44L137.22-17.44Q137.98-18.69 139.52-18.88L139.52-18.88L152.13-18.88L152.13-18.88Q154.24-18.88 154.88-20.16L154.88-20.16L154.88-20.16Q155.90-19.58 156.35-18.37L156.35-18.37L156.35-18.37Q156.80-17.15 156.80-15.87L156.80-15.87L156.80-15.87Q156.80-14.59 155.81-13.34L155.81-13.34L155.81-13.34Q154.82-12.10 153.34-11.97L153.34-11.97L141.63-11.97L141.63-11.97Q140.29-11.97 139.65-11.55L139.65-11.55L139.65-11.55Q139.01-11.14 138.50-10.37ZM164-1.92L164-1.92L164-1.92Q162.50-3.58 161.82-6.21L161.82-6.21L161.82-6.21Q161.15-8.83 161.15-13.12L161.15-13.12L161.15-13.12Q161.15-17.41 162.62-21.31L162.62-21.31L162.62-21.31Q164.10-25.22 166.78-28.03L166.78-28.03L166.78-28.03Q172.29-33.92 181.38-33.92L181.38-33.92L181.38-33.92Q184.64-33.92 187.01-32.83L187.01-32.83L197.95-33.92L193.22-8.96L193.22-8.96Q193.02-8.19 193.02-6.78L193.02-6.78L193.02-6.78Q193.02-5.38 193.89-4.48L193.89-4.48L193.89-4.48Q194.75-3.58 196.03-3.46L196.03-3.46L196.03-3.46Q195.39-1.28 193.06 0L193.06 0L193.06 0Q190.72 1.28 188.10 1.28L188.10 1.28L188.10 1.28Q185.47 1.28 183.71 0.29L183.71 0.29L183.71 0.29Q181.95-0.70 181.44-2.37L181.44-2.37L181.44-2.37Q180.42-0.77 178.24 0.26L178.24 0.26L178.24 0.26Q176.06 1.28 173.15 1.28L173.15 1.28L173.15 1.28Q170.24 1.28 167.87 0.51L167.87 0.51L167.87 0.51Q165.50-0.26 164-1.92ZM177.50-27.90L177.50-27.90L177.50-27.90Q176.77-26.75 176.13-24.80L176.13-24.80L176.13-24.80Q175.49-22.85 174.43-17.63L174.43-17.63L174.43-17.63Q173.38-12.42 173.38-8.70L173.38-8.70L173.38-8.70Q173.38-4.99 173.95-3.90L173.95-3.90L173.95-3.90Q174.53-2.82 175.55-2.82L175.55-2.82L175.55-2.82Q177.60-2.82 179.10-4.77L179.10-4.77L179.10-4.77Q180.61-6.72 181.18-10.18L181.18-10.18L184.58-28.93L184.58-28.93Q183.23-30.08 181.66-30.08L181.66-30.08L181.66-30.08Q180.10-30.08 179.17-29.57L179.17-29.57L179.17-29.57Q178.24-29.06 177.50-27.90ZM203.26-10.37L203.26-10.37L203.26-10.37Q201.22-11.84 201.22-14.66L201.22-14.66L201.22-14.66Q201.22-16.19 201.98-17.44L201.98-17.44L201.98-17.44Q202.75-18.69 204.29-18.88L204.29-18.88L216.90-18.88L216.90-18.88Q219.01-18.88 219.65-20.16L219.65-20.16L219.65-20.16Q220.67-19.58 221.12-18.37L221.12-18.37L221.12-18.37Q221.57-17.15 221.57-15.87L221.57-15.87L221.57-15.87Q221.57-14.59 220.58-13.34L220.58-13.34L220.58-13.34Q219.58-12.10 218.11-11.97L218.11-11.97L206.40-11.97L206.40-11.97Q205.06-11.97 204.42-11.55L204.42-11.55L204.42-11.55Q203.78-11.14 203.26-10.37ZM241.28-3.52L241.28-3.52L241.28-3.52Q239.30 1.28 232.96 1.28L232.96 1.28L232.96 1.28Q229.76 1.28 227.71-0.96L227.71-0.96L227.71-0.96Q226.05-2.82 226.05-4.93L226.05-4.93L226.05-4.93Q226.05-9.73 228.29-20.22L228.29-20.22L232.96-44.80L245.95-46.08L239.74-13.70L239.74-13.70Q238.66-8.96 238.66-7.30L238.66-7.30L238.66-7.30Q238.66-3.65 241.28-3.52ZM262.08-3.52L262.08-3.52L262.08-3.52Q260.10 1.28 253.76 1.28L253.76 1.28L253.76 1.28Q250.50 1.28 248.45-0.96L248.45-0.96L248.45-0.96Q246.72-2.94 246.72-4.93L246.72-4.93L246.72-4.93Q246.72-10.11 249.09-20.22L249.09-20.22L251.46-32.64L264.45-33.92L260.54-13.70L260.54-13.70Q259.46-8.96 259.46-7.30L259.46-7.30L259.46-7.30Q259.46-3.65 262.08-3.52ZM252.61-41.54L252.61-41.54L252.61-41.54Q252.61-44.03 254.69-45.38L254.69-45.38L254.69-45.38Q256.77-46.72 259.78-46.72L259.78-46.72L259.78-46.72Q262.78-46.72 264.61-45.38L264.61-45.38L264.61-45.38Q266.43-44.03 266.43-41.54L266.43-41.54L266.43-41.54Q266.43-39.04 264.42-37.76L264.42-37.76L264.42-37.76Q262.40-36.48 259.39-36.48L259.39-36.48L259.39-36.48Q256.38-36.48 254.50-37.76L254.50-37.76L254.50-37.76Q252.61-39.04 252.61-41.54ZM284.03-30.34L284.03-30.34L284.03-30.34Q287.49-33.92 294.78-33.92L294.78-33.92L294.78-33.92Q298.82-33.92 301.02-31.78L301.02-31.78L301.02-31.78Q303.23-29.63 303.23-25.70L303.23-25.70L303.23-25.70Q303.23-21.76 301.02-18.98L301.02-18.98L301.02-18.98Q298.82-16.19 294.72-15.04L294.72-15.04L294.72-15.04Q295.04-13.76 295.49-12.42L295.49-12.42L296.38-9.86L296.38-9.86Q297.60-6.59 298.56-5.44L298.56-5.44L298.56-5.44Q299.52-4.29 300.80-3.90L300.80-3.90L300.80-3.90Q300.10-1.28 297.54 0.13L297.54 0.13L297.54 0.13Q295.49 1.28 292.67 1.28L292.67 1.28L292.67 1.28Q284.42 1.28 283.33-11.46L283.33-11.46L283.33-11.46Q283.14-13.25 283.14-15.04L283.14-15.04L283.14-15.04Q286.34-15.94 288.58-18.94L288.58-18.94L288.58-18.94Q290.82-21.95 290.82-25.47L290.82-25.47L290.82-25.47Q290.82-28.99 288.32-28.99L288.32-28.99L288.32-28.99Q286.53-28.99 285.12-27.01L285.12-27.01L285.12-27.01Q283.71-25.02 283.07-21.63L283.07-21.63L278.85 0L265.92 1.28L274.88-44.80L287.74-46.08L286.27-38.46L286.27-38.46Q285.31-33.09 284.03-30.34ZM332.10-10.82L332.10-10.82L332.10-10.82Q333.70-9.73 333.70-7.33L333.70-7.33L333.70-7.33Q333.70-4.93 332.48-3.39L332.48-3.39L332.48-3.39Q331.26-1.86 329.28-0.83L329.28-0.83L329.28-0.83Q325.18 1.28 320.77 1.28L320.77 1.28L320.77 1.28Q316.35 1.28 313.76 0.32L313.76 0.32L313.76 0.32Q311.17-0.64 309.44-2.43L309.44-2.43L309.44-2.43Q306.05-5.82 306.05-12.03L306.05-12.03L306.05-12.03Q306.05-21.70 311.30-27.58L311.30-27.58L311.30-27.58Q316.93-33.92 326.72-33.92L326.72-33.92L326.72-33.92Q332.80-33.92 335.81-31.36L335.81-31.36L335.81-31.36Q338.05-29.44 338.05-26.30L338.05-26.30L338.05-26.30Q338.05-15.04 318.59-15.04L318.59-15.04L318.59-15.04Q318.34-13.38 318.34-11.97L318.34-11.97L318.34-11.97Q318.34-9.02 319.65-7.90L319.65-7.90L319.65-7.90Q320.96-6.78 323.39-6.78L323.39-6.78L323.39-6.78Q325.82-6.78 328.42-7.90L328.42-7.90L328.42-7.90Q331.01-9.02 332.10-10.82ZM319.04-17.79L319.04-17.79L319.04-17.79Q323.58-17.79 326.21-20.61L326.21-20.61L326.21-20.61Q328.83-23.30 328.83-27.58L328.83-27.58L328.83-27.58Q328.83-29.06 328.29-29.86L328.29-29.86L328.29-29.86Q327.74-30.66 326.66-30.66L326.66-30.66L326.66-30.66Q325.57-30.66 324.64-30.24L324.64-30.24L324.64-30.24Q323.71-29.82 322.75-28.42L322.75-28.42L322.75-28.42Q320.38-25.22 319.04-17.79Z" fill="#eb6c6c"></path></g></g><style>text {
  font-size: 64px;
  font-family: Arial Black;
  dominant-baseline: central;
  text-anchor: middle;
}</style></svg>